<?xml version="1.0" encoding="utf-8"?>
<!-- Generator: Adobe Illustrator 23.1.0, SVG Export Plug-In . SVG Version: 6.00 Build 0)  -->
<svg version="1.1" id="Слой_1" xmlns="http://www.w3.org/2000/svg" xmlns:xlink="http://www.w3.org/1999/xlink" x="0px" y="0px"
	 viewBox="0 0 293.8 487.7" style="enable-background:new 0 0 293.8 487.7;" xml:space="preserve">
<style type="text/css">
	.st0{display:none;}
	.st1{display:inline;fill:#7D7D7D;}
	.st2{enable-background:new    ;}
</style>
<g class="st0">
	<rect y="-13.9" class="st1" width="293.8" height="445.5"/>
</g>
<g id="Слой_3">
	<g>
		<path d="M182.5,102.1c1,0,1.9,0,2.7,0c10.1,0.4,20.2,0.8,30.4,1.2c4.2,0.2,8.5,0.5,12.7,0.8c2.6,0.2,3.5,1.1,3.5,3.7
			c0,5.8,0,11.6,0,17.3c0,0.9-0.2,1.7-0.3,2.6c-0.1,1.1-0.6,1.6-1.7,1.7c-2.7,0.2-5.3,0.6-8,0.8c-6.9,0.3-13.8,0.5-20.8,0.9
			c-10.5,0.5-20.9,1.1-31.4,1.7c-12.1,0.6-24.2,0.8-36.3,0.2c-9.6-0.5-19.2-1-28.8-1.4c-0.8,0-1.6,0-2.6,0c0,1.6-0.5,3,1.2,4.2
			c2.5,1.8,3.9,4.6,4.6,7.6c0.5,2.2,1.6,3.8,3.5,5.1c2.6,1.7,4.3,4.2,5.2,7.2c0.5,1.5,1.2,2.5,2.7,3.2c3.2,1.6,5.7,4.1,7,7.6
			c0.3,0.6,0.8,1.3,1.4,1.6c2.2,1.3,4.4,2.5,6.6,3.8c0.1,0.1,0.3,0.1,0.5,0.2c0.5-12.5,1-24.8,1.4-37.3c1.2,0,2.4,0,3.7,0
			c-0.4,12.8-0.8,25.4-1.3,38.1c0.1,0,0.2,0,0.3,0c0.2-1.8,0.5-3.5,0.6-5.3c0.5-10.2,0.9-20.4,1.3-30.6c0-0.7,0.3-1.4,0.5-2.1
			c0.2,0,0.4,0,0.5,0c0.1,1,0.3,1.9,0.3,2.9c-0.1,5.5-0.2,11.1-0.3,16.6c-0.1,7.5-0.2,15.1-0.4,22.6c0,0.9,0.2,1.5,1.1,1.7
			c0.6,0.2,1.2,0.5,1.9,0.8c0.1-14.8,0.3-29.5,0.4-44.3c3.1-0.2,6.1-0.4,9.3-0.5c0.7,17.7,1.5,35.3,2.2,53c0.1,0,0.2,0,0.3,0
			c0.1-0.6,0.3-1.2,0.3-1.9c-0.1-5.5-0.1-11-0.3-16.5c-0.3-10.2-0.7-20.5-1.1-30.7c0-1.3,0-2.6,0-4.1c1.5,0,2.8,0,4.2,0
			c0,0.2,0.1,0.5,0.1,0.7c0.6,14.6,1.2,29.3,1.7,43.9c0.1,2.5-0.1,5.1,0,7.6c0,1.5,0.2,2.9,0.4,4.4c0.3,1.7,1.3,2.9,2.9,3.4
			c1.1,0.3,2.2,0.7,3.3,1c2.9,0.9,5.2,2.5,6.9,5c1.1,1.7,2.6,2.7,4.5,3.4c4,1.4,7.1,3.9,8.9,7.8c0.6,1.3,1.6,2.1,2.9,2.8
			c4,2,6.5,5.2,7.5,9.6c0.4,1.9,1.3,3.4,2.7,4.8c2.7,2.7,4.2,6.1,4,9.9c-0.2,3.4,0.3,6.6,1.6,9.7c1.3,2.9,1,5.9-0.1,8.8
			c-1,2.5-1.4,5.1-1.2,7.9c0.3,3.1-1,5.9-3,8.3c-0.7,0.8-1.6,1.5-2.3,2.3c-1,1.3-1.9,2.6-2.7,3.9c-0.4,0.6-0.6,1.2-0.9,1.8
			c-1.7,3.2-4.2,5.3-7.8,6c-2.2,0.5-4.3,1.3-5.9,2.9c-3,2.9-6.6,4.2-10.8,4.2c-2.9,0-2.9,0.1-4.8,1.1c-0.1-0.6-0.2-1.2-0.2-1.8
			c-0.1-0.6-0.1-1.2-0.1-2.1c5.9,3.1,10.7,0.7,15.5-2.9c-0.4-0.3-0.8-0.7-1.3-1c-1.7-0.8-3-2.1-3.9-3.7c-1.3-2.2-3.2-3.1-5.6-3.1
			c-1.2,0-2.4,0.1-3.7,0.1c-0.5,0-1-0.1-1.5-0.2c0-0.9,0.4-1.3,1.1-1.3c1.4,0,2.9-0.1,4.3-0.1c0.7,0,1.2-0.1,1.7-0.6
			c0.7-0.7,1.5-1.3,2.3-2c1.2-1.1,2.6-1.8,4.3-2.2c2.5-0.5,4.5-1.8,5.6-4.4c1-2.4,2.5-4.5,4.9-5.8c0.2-0.1,0.3-0.7,0.3-1
			c0-2.4-0.1-4.8,0.1-7.2c0.1-1.5,0.9-2.9,1.2-4.3c0.1-0.5,0-1.2-0.2-1.6c-1.1-1.9-1.7-4-1.7-6.2c0-1.6-0.1-3.2-0.1-4.7
			c0-1-0.3-1.8-1.1-2.5c-2.8-2.4-4.1-5.6-5-9.1c-0.1-0.4-0.4-0.9-0.8-1.1c-3.8-2.1-7-4.8-8.8-9c-0.1-0.3-0.6-0.7-0.9-0.8
			c-4.3-1-7.5-3.6-10.3-6.8c-0.2-0.2-0.4-0.4-0.6-0.6c0,0-0.1,0-0.3-0.1c0,0.8,0,1.6,0,2.5c0.3,8.6,0.5,17.2,0.8,25.8
			c0.5,13.9,1.1,27.9,1.6,41.8c0.3,9,0.6,18,2,26.8c0.6,3.9,1.4,7.7,3,11.3c3.3,7.2,9,11.1,16.8,11.9c6.1,0.7,12.1-0.4,18-2.1
			c8.4-2.5,16.4-5.9,23.3-11.4c5.2-4.1,9.6-8.9,13.5-14.3c0.5-0.7,0.9-1.4,1.3-2.1c0.2-0.3,0.3-0.6,0.5-1c-8.4,0-16.9,1-25.2-2.4
			c0.5-0.4,0.8-0.6,1.1-0.8c4-2.7,8-5.4,12.1-8c5.4-3.5,10-7.8,14.3-12.5c7.9-8.8,14-18.6,18.2-29.7c1.2-3,2.1-6.1,3.1-9.2
			c0.1-0.4,0.3-0.7,0.6-1.3c0.7,1.2,1.4,2.2,1.9,3.2c5.2,10.7,8.6,21.9,9.6,33.8c1,12.1-0.5,23.9-3.8,35.5
			c-1.8,6.2-4.1,12.2-6.1,18.3c-0.1,0.2-0.2,0.4-0.4,0.8c-0.8-1-1.7-1.9-2.2-2.9c-1.9-3.7-3.7-7.4-5.4-11.1
			c-0.7-1.4-1.1-2.9-1.7-4.5c-0.4,0.5-0.8,1-1.1,1.4c-2.5,4.1-4.7,8.2-7.4,12.1c-12.5,18.3-17.4,25.4-38.8,38.8
			c-8.5,5.3-17.5,9.7-26.6,13.9c-6,2.8-11.8,5.7-17.2,9.6c-8.5,6.2-15,14.1-20,23.4c0,0.1-0.1,0.1-0.2,0.3c-0.6-0.7-1.3-1.4-1.8-2.1
			c-2.7-3.8-5.2-7.8-8.2-11.5c-4.8-6-10.9-10.8-17.7-14.4c-8-4.2-16.1-8.2-24.2-12.2c-10.9-5.4-20.9-11.8-30.1-19.8
			c-8-6.9-14.2-15.1-19.9-23.8c-3-4.6-5.7-9.3-8.6-13.9c-0.4-0.6-0.8-1.2-1.3-1.9c-2.7,6.5-4.8,13-9.5,18.5c-0.3-0.6-0.5-1-0.6-1.4
			c-4.1-9.8-7.3-19.9-8.9-30.5c-2.5-16.8-0.9-33.2,5.5-48.9c1.2-3,2.6-5.9,4-8.8c0.3-0.6,0.7-1.1,1.3-1.9c0.5,1.3,0.9,2.3,1.3,3.4
			c2.2,6.1,4.3,12.3,7.4,18c3.4,6.4,7.7,12.1,12.3,17.7c5.3,6.4,11.5,11.7,18.6,16.1c2.7,1.7,5.4,3.3,8,5c0.5,0.3,1,0.7,1.8,1.3
			c-8.3,2.8-16.6,3.2-25.2,2.2c0.3,0.6,0.4,0.9,0.6,1.1c7.6,13.1,18.9,21.6,33.1,26.3c5.7,1.9,11.6,3.5,17.6,3.8
			c4.7,0.3,9.3-0.2,13.6-2.5c4.6-2.5,7.3-6.6,9-11.4c1.7-4.7,2.6-9.5,2.9-14.4c0.6-10.8,1.1-21.6,1.6-32.4c0.5-12.3,1-24.6,1.4-36.8
			c0.5-12.7,1.1-25.3,1.5-38c0.1-4.1,0.6-2.9-2.9-4.9c-2.6-1.5-4.7-3.4-6.3-5.9c-0.5-0.8-1.3-1.5-2.1-2c-1-0.7-2.2-1.2-3.3-1.8
			c-2.8-1.3-4.7-3.6-6-6.3c-0.7-1.4-1.7-2.5-3-3.3c-1.3-0.8-2.5-1.6-3.7-2.6c-2.1-1.8-3.4-4.1-4.1-6.7c-0.3-1.1-0.9-1.8-1.8-2.4
			c-3.7-2.5-6.3-5.8-6.9-10.4c-0.2-1.5-1-2.5-2.1-3.4c-2-1.8-3.6-3.9-4.2-6.5c-0.3-1.5-0.4-3-0.6-4.5c-0.4-2.9-0.3-3.1-3.2-3.5
			c-3.2-0.4-6.5-0.3-9.8-0.5c-2.7-0.1-5.4-0.3-8-0.5c-1.1-0.1-1.8-0.8-2-1.8c-0.2-0.9-0.5-1.9-0.5-2.8c0-5.8,0-11.6,0.2-17.3
			c0.1-3.2-0.1-2.9,3.2-3.3c3.2-0.3,6.5-0.3,9.7-0.4c0.9,0,1.8-0.2,2.7-0.4c1.3-0.3,1.8-0.9,1.9-2.3c0-1.1-0.1-2.3-0.2-3.4
			c-0.6-4.3-0.1-8.4,2.3-12.2c0.6-1,1-2.3,0.9-3.5c-0.2-4.6,1.7-8.2,4.9-11.2c1.2-1.2,2.1-2.6,2.5-4.2c1-4.4,3.6-7.4,7.7-9.3
			c0.9-0.4,2-1.3,2.3-2.2c1.4-3.5,4.1-5.6,7.3-6.9c1.7-0.7,2.3-1.7,2.4-3.5c0.7-13.2,6.9-23.1,18-30c23.5-14.3,50.8,1.1,55.6,24.6
			c1.3,6.2,1,12.3-1.1,18.3c-1.2,3.5-0.5,6.7,0.8,9.9c0.4,1,1,2,1.6,2.9c2.3,3.6,2.2,7.4,0.8,11.3c-0.3,0.8-0.4,1.8-0.2,2.6
			c1.2,4.2,0.5,8-1.7,11.7c-0.9,1.5-1.5,3.2-2.1,4.8C182.5,101.2,182.6,101.5,182.5,102.1z M141.1,197.6c0,0.7,0,1,0,1.4
			c-0.1,9.1-0.2,18.2-0.3,27.4c-0.3,23-0.7,46-1.1,69.1c-0.2,15-0.2,30-1.9,45c-0.4,3.7-1,7.5-2.3,11c-1,2.8-3,4.4-5.9,4.5
			c-3.8,0.1-7.7,0.1-11.5-0.2c-15-1.3-28.3-6.9-40.3-15.9c-7.6-5.7-14.6-12.1-20.5-19.5c-9.8-12.2-17-25.7-22.4-40.3
			c-0.9-2.4-1.7-4.8-2.6-7.4c0,0.4,0,0.5,0,0.6c0.9,3.4,1.7,6.8,2.9,10.1c7,20.4,18.1,38.2,34.3,52.7c6.8,6.1,14.5,10.9,22.5,15.2
			c8.8,4.7,18.1,8.3,27.6,11.5c8.9,3,16.9,7.3,22.8,14.9c0.3,0.4,0.7,0.7,1.2,1.1c0-0.4,0-0.6,0-0.8c0.1-17.7,0.2-35.3,0.3-53
			c0.2-27,0.3-54.1,0.4-81.1c0.1-14.5,0.1-28.9,0.2-43.4c0-0.4-0.1-0.9-0.4-1.1C143.2,198.6,142.2,198.2,141.1,197.6z M66.7,126.7
			c0.6,0,1.1,0,1.7,0c8.3,0.3,16.6,0.6,24.9,1c13.6,0.7,27.2,1.6,40.9,2.4c12.6,0.7,25.1,0.1,37.7-0.6c8.2-0.5,16.3-1,24.5-1.4
			c8.4-0.4,16.8-0.6,25.2-1c2-0.1,4.1-0.3,6.1-0.6c0.3,0,0.7-0.4,0.8-0.6c0.2-0.8,0.1-1.7,0.2-2.6c-0.6,0-1,0-1.4,0
			c-5.4,0.2-10.8,0.4-16.1,0.6c-12.5,0.5-25,0.9-37.5,1.4c-16.3,0.6-32.6,0.7-48.9,0.1c-17.1-0.6-34.1-1.3-51.2-2
			c-2.2-0.1-4.4,0-6.7,0C66.7,124.5,66.7,125.5,66.7,126.7z M114.2,62.4c-0.7,1.1-1.3,1.9-1.8,2.7c-1,1.9-2.4,3.4-4.3,4.3
			c-2.3,1-3.6,2.7-4.2,5.2c-0.6,2.8-2.2,5.2-4.7,6.9c-0.7,0.5-1,1-0.9,1.8c0.3,3.9-0.4,7.6-3,10.7c-0.2,0.3-0.4,0.8-0.3,1.2
			c0.4,2.5,0.9,4.9,1.4,7.5c-0.1,0,0.1,0,0.4,0c3.6-0.2,7.2-0.3,10.8-0.5c10.3-0.5,20.5-1.1,30.8-1.6c5.7-0.3,11.4-0.4,17.1,0.2
			c3.2,0.3,6.4,0.2,9.6,0.1c2.3-0.1,2.8-0.7,3.1-2.9c0.4-3.2,1.2-6.2,3.6-8.5c0.6-0.6,0.7-1.2,0.5-2c-0.6-3.2-1.3-6.4,0.1-9.6
			c0.2-0.6-0.1-1.4-0.2-2.3c-4.3,2.6-7.9,5.8-12.7,6.7c-0.1-0.2-0.1-0.4-0.1-0.5c-0.2-4.6-0.3-9.2-0.5-13.8c0-0.4,0.3-0.9,0.6-1.1
			c1.2-1,2.5-1.9,3.7-2.8c0.6-0.4,0.5-0.8,0.2-1.3c-0.9-1.3-1.7-2.6-2.5-3.9c-0.4-0.7-0.9-1.1-1.8-1.1c-2.2,0-4.2-0.7-6-1.8
			c-1.1-0.7-2.2-1.5-3.3-2.2c-0.4-0.2-0.9-0.3-1.3-0.2c-3,0.7-6,0.9-8.9-0.4c-1.5-0.7-2.8-0.6-4.1,0.3c-1.8,1.2-3.7,1.9-5.8,2.1
			c-0.8,0.1-1.6,0.1-2.5,0.1c0.6,1.9,1.5,3.5,2.6,5c1.7,2.3,3.7,4.2,6.2,5.6c1,0.6,1.5,1.3,1.4,2.6c-0.2,2.6-0.2,5.3-0.3,8
			c0,1.8,0,3.6,0,5.5C126.2,79,119.1,72.1,114.2,62.4z M263.2,274.6c-1,2.6-2.1,5.1-3,7.7c-4.2,12-10,23.1-17.7,33.2
			c-8.2,10.8-17.6,20.3-29.3,27.3c-10.3,6.3-21.4,10.6-33.3,12.5c-2.5,0.4-4.9,1-7.3,1.9c-2.6,1-3.7,3.3-3.7,6.1
			c1.9,0.2,3.6,0,5.4-0.4c6.5-1.4,12.5-3.8,18.6-6.4c15.3-6.4,29-15.1,40.4-27.2c11.3-12,19.9-25.8,26-41
			C261.1,283.9,262.5,279.4,263.2,274.6z M132.9,291.3c-0.1,0-0.2,0-0.2,0c0,0.2,0,0.5,0,0.7c-0.4,5.4-0.7,10.9-1.3,16.3
			c-0.6,5.1-1.7,10.1-4,14.8c-2.7,5.4-6.7,9.3-12.7,10.7c-3.9,0.9-7.9,0.8-11.8-0.1c-4.6-1-9.2-2.3-13.8-3.4
			c-0.4-0.1-0.8-0.1-1.1-0.2c1,0.6,2.1,1,3.1,1.5c4.8,2.2,9.8,3.9,15,4.7c3.8,0.6,7.6,0.9,11.4-0.2c5.7-1.7,9.4-5.7,11.6-11
			c4-9.9,5.1-20.2,4.3-30.7C133.3,293.4,133.1,292.3,132.9,291.3z M207.6,330.7c0-0.1-0.1-0.3-0.1-0.4c-1.6,0.4-3.3,0.8-4.9,1.3
			c-4.8,1.6-9.7,2.7-14.8,2.8c-9,0.1-15.7-3.7-19.4-12c-1.3-2.9-2.2-6-2.9-9.1c-1.5-6.6-1.8-13.3-2-20c0-0.4,0-0.7-0.1-1.1
			c-0.1,0-0.3,0-0.4,0c-0.2,1.4-0.6,2.8-0.5,4.2c0.1,4.7,0.3,9.3,0.7,14c0.4,4.7,1.3,9.3,3.1,13.7c3.5,9,10,13.2,19.7,12.6
			c4.3-0.3,8.4-1.3,12.5-2.7C201.4,333.1,204.5,331.9,207.6,330.7z M170.9,47.1c-0.1-1.2-0.2-2.2-0.3-3.1
			c-1.2-10-8.8-18.1-18.6-19.7c-10.3-1.7-19.2,2.9-24.6,12.2c-0.4,0.6-0.6,1.3-0.8,2c-0.1,0.6,0,1.2,0,1.9c0.7,0,1.5-0.1,2.2-0.1
			c0.2,0,0.4-0.2,0.6-0.3c3.9-2.8,8.1-3.3,12.6-1.8c2,0.7,3.9,0.7,5.9,0.4c4.2-0.7,7.9,0.3,11,3.2c1.2,1.1,2.6,1.7,4.2,1.9
			c1.8,0.2,3.5,0.8,5,1.8C168.9,45.9,169.8,46.4,170.9,47.1z M127.6,169.7c-0.8,2.4-1.5,4.7-2.4,6.9c-1,2.5-0.7,4.9,1,7
			c1.1,1.4,2.3,2.7,3.6,3.8c1.6,1.4,3.6,2.2,5.9,2.6c-0.4-2.6,0.3-4.8,1.3-6.9c0.6-1.3,0.7-2.7,0.2-4.1
			C135.4,174.3,132,171.4,127.6,169.7z M193.9,250.7c0.4-0.3,0.8-0.4,1.1-0.7c1.3-1.5,3.1-2,4.9-2.5c2-0.6,3.3-1.8,3.9-3.8
			c1.7-5.4-0.5-9.8-3.3-14.2c-0.4,0.4-0.8,0.7-1,1.1c-0.8,2-2.4,3.2-4.1,4.4c-1.9,1.3-3,3.2-3.2,5.5
			C191.9,244,192.8,247.3,193.9,250.7z M184.6,225.7c0-2.7,1.2-4.6,2.7-6.4c0.9-1.1,1.1-2.6,0.8-4c-0.6-2.8-2-5-4-7
			c-1.8-1.7-4-2.8-6.6-3.4c0.4,2.7-0.6,5-1.5,7.3c-0.4,0.9-0.6,2-0.4,2.9C176.7,220.1,179.8,223.5,184.6,225.7z M204.6,263
			c-0.5,0.1-0.9,0.2-1.2,0.3c-1.8,1.1-3.8,1.1-5.8,0.9c-0.8-0.1-1.8-0.1-2.5,0.3c-3.9,1.6-6.7,4.4-8.2,8.4c-0.3,0.7-0.1,1.1,0.6,1.2
			c1.9,0.3,3.5,1.3,5.1,2.3c1.1,0.7,2.3,0.8,3.5,0.6c1.7-0.3,3.1-1.1,4.3-2.3C203.7,271.5,204.6,267.5,204.6,263z M138.9,179.2
			c0.3,2.5-0.5,4.7-1.4,7c-0.6,1.5-0.5,3,0.2,4.4c2.1,4.5,5.7,7,10.4,8.1c0.2,0,0.4,0,0.6,0c0-1.2-0.1-2.4,0-3.6
			c0.2-1.2,0.8-2.3,1.1-3.5c0.2-0.9,0.3-1.9,0.1-2.8C148.9,184.2,143.7,179.7,138.9,179.2z M196.7,278.6c-0.4,0-0.7,0-1,0
			c-1.6,0-3.1-0.2-4.3-1.3c-2.1-2-4.6-2.3-7.3-1.9c-3.5,0.5-6.3,2.2-8.5,4.6c1.5,1.6,3,3,4.2,4.7c1.3,1.7,2.9,2.6,5,2.6
			c4.8,0.1,10.2-3.6,11.8-8.2C196.6,279,196.7,278.9,196.7,278.6z M185.1,85.3c-0.5,0.2-0.9,0.3-1.3,0.5c-1.7,1-3.5,1.3-5.4,1.5
			c-1.2,0.1-2.5,0.5-3.5,1.1c-1.7,1.1-3,2.8-3.9,4.6c-0.9,1.9-1.3,3.8-1.4,5.8c2.3,0.2,4.5,0.3,6.6,0.7c2.4,0.4,4.2-0.3,5.8-1.9
			C185.4,94.2,185.8,90,185.1,85.3z M103.2,71.6c-2.5,0.2-4.7-0.6-7-1.4c-1.3-0.5-2.6-0.3-3.9,0.2c-4.3,1.8-7.6,7.7-6.9,12.2
			c2-0.1,3.9-0.5,5.9-0.3c4.5,0.5,7.6-1.6,9.9-5.1C102.2,75.6,102.9,73.7,103.2,71.6z M146.6,40.1c0.2,0.5,0.3,0.9,0.5,1.2
			c1.1,1.5,1.3,3.3,1.3,5.1c0.2,5.6,5.4,10.1,10.9,9.6c0.5-2.3,0.9-4.5,1.4-6.7c0.5-2.3-0.2-4.3-1.9-5.9
			C155.4,40.2,151.2,39.6,146.6,40.1z M82.5,99.2c2-2.3,4.4-2.4,6.9-2.8c1-0.1,2-0.7,2.9-1.3c2.5-1.9,3.9-4.6,4.3-7.7
			c0.2-1.4,0.3-2.7,0.4-3.9c-2.5,0.1-4.8,0.2-7.1,0.2c-2.7,0-4.8,1.1-6.1,3.5c-0.3,0.6-0.6,1.1-0.9,1.7
			C81.6,92.2,81.4,95.4,82.5,99.2z M164.4,196.1c0.4,2.4-0.1,4.6-0.9,6.7c-0.7,1.9-0.5,3.8,0.5,5.6c2,3.6,5.1,5.9,9,7.2
			c0.3,0.1,0.5,0.1,0.9,0.2c0-2.8,0.9-5.3,1.8-7.8c0.3-0.8,0.3-1.9,0.1-2.7C174.7,200.9,169.1,196.5,164.4,196.1z M123.1,180.4
			c-0.3-2.7,0.6-4.8,1.8-6.9c0.7-1.2,0.9-2.5,0.6-3.8c-0.9-4.6-3.5-7.7-7.7-9.7c-0.2-0.1-0.5-0.2-0.8-0.3c-0.1,0.2-0.1,0.3-0.1,0.5
			c0,2-0.8,3.6-2.2,5.1c-1.1,1.1-1.5,2.6-1.4,4.2c0.5,4.8,3.3,8,7.5,10.2C121.5,179.9,122.2,180.1,123.1,180.4z M151.4,187.8
			c0,1.4,0.2,2.7,0,3.9c-0.2,1.3-0.8,2.5-1.1,3.7c-0.4,1.5-0.1,2.8,0.6,4.2c1.9,3.7,5.1,6,9,7.2c0.6,0.2,1.2,0.3,2,0.5
			c-0.5-2.7,0.2-5,1-7.3c0.5-1.6,0.3-3.1-0.6-4.6c-1.4-2.4-3.3-4.4-5.7-5.9C155,188.5,153.3,187.9,151.4,187.8z M191.3,237.2
			c0.3-0.3,0.6-0.5,0.7-0.8c0.8-2,2.6-3,4.2-4.2c1.4-1.1,2.1-2.6,2-4.4c-0.1-4.4-2-7.8-5.3-10.5c-0.8-0.6-1.7-1.1-2.7-1.8
			c-0.3,3-1.6,5.2-3.3,7.2c-0.5,0.6-0.7,1.7-0.7,2.5c0,1.4,0.1,2.8,0.4,4.2C187.3,232.5,188.8,235.1,191.3,237.2z M130.1,41.3
			c2.6,1,3.3,3.2,4,5.4c0.3,0.9,0.8,1.8,1.5,2.4c3.2,2.8,7,3.7,11.2,2.9c0.9-0.2,1.1-0.6,0.9-1.5c-0.4-1.6-0.8-3.3-0.9-5
			c-0.3-2.4-1.4-4.1-3.4-5.3c-2.1-1.2-4.4-1.5-6.8-1.3C134.4,39.1,132.2,39.8,130.1,41.3z M108.8,148.5c-0.3,0.5-0.5,1-0.8,1.4
			c-0.7,1.1-1.2,2.4-2.2,3.3c-2.3,2.1-2.8,4.5-2,7.3c1.1,4.3,3.8,7.2,7.7,9c0.6-1.5,1.1-3,1.7-4.3c0.3-0.7,0.8-1.4,1.3-2.1
			c1.4-2.2,1.6-4.4,0.6-6.8C113.8,153.2,112,150.4,108.8,148.5z M115.4,46.8c0.3,0.2,0.6,0.4,0.9,0.6c1.7,0.7,3,1.8,4,3.3
			c1.6,2.3,4,3.4,6.8,3.3c1.7-0.1,3.3-0.4,5-0.8c1.4-0.3,2.5-1.1,3.4-2.4c-1.9-1.5-2.9-3.5-3.7-5.6c-0.6-1.5-1.7-2.3-3.2-2.8
			C124.3,41,119.3,42.2,115.4,46.8z M101.4,157.7c0.4-0.6,0.8-1.1,1-1.7c0.6-1.5,1.4-2.7,2.5-3.8c1.3-1.2,2-2.8,2-4.6
			c0.1-4.5-1.7-8-5.2-10.8c-0.2-0.1-0.4-0.2-0.7-0.3c-0.4,2.2-1.7,3.7-3.5,4.8c-1.9,1.2-2.6,2.9-2.6,5
			C95.1,151.1,97.6,154.7,101.4,157.7z M123.3,54.6c-2.6-0.3-3.9-2.2-5.2-4.1c-0.8-1.1-2-1.7-3.4-1.8c-4.8-0.4-8.3,1.8-11.1,5.5
			c-0.4,0.6-0.7,1.3-1,1.9c0.2,0.1,0.2,0.2,0.3,0.2c0.2,0.1,0.5,0.2,0.7,0.2c1.8,0.2,3.2,1.1,4.6,2.3c0.8,0.7,2,1.2,3,1.5
			C115.4,61.3,121.1,58.6,123.3,54.6z M92.1,68.7c2.8-0.7,5.1,0.2,7.4,1.2c0.9,0.4,2,0.5,2.9,0.4c3.8-0.3,8.5-4.3,9.7-8.1
			c-0.7-0.3-1.4-0.5-2.1-0.8c-1.1-0.6-2.4-1-3.4-1.8c-1.8-1.4-3.7-1.8-5.9-1.2C95.9,60,93.4,63.7,92.1,68.7z M182.9,68.9
			c-1.2,2.7-3.6,3.9-6,5c-0.8,0.4-1.6,1.3-2.1,2.1c-1.3,1.8-1.8,3.9-1.9,6.1c-0.1,1.7,0,3.4,0.8,4.8c2.6-0.5,5.1-1,7.5-1.6
			c0.9-0.2,1.8-0.8,2.4-1.4C186.9,80.2,186.6,72.7,182.9,68.9z M204.6,246.2c-0.2,0.2-0.5,0.4-0.7,0.6c-1.3,1.5-2.9,2.2-4.8,2.7
			c-0.9,0.2-1.8,0.6-2.5,1.2c-3.8,3.4-4.2,7.9-3.8,12.7c0.7-0.1,1.2-0.2,1.7-0.3c1.4-0.2,2.8-0.5,4.2-0.4c3,0.2,4.9-1.1,6.2-3.7
			c1.4-2.9,1.8-5.9,1.4-9C206.1,248.6,205.7,247.3,204.6,246.2z M162.1,45c0,1.2,0.1,2.3,0,3.4c-0.2,1.5-0.6,2.9-0.9,4.4
			c-0.7,3.2,0.9,7.1,3.6,9c0.4-0.3,0.8-0.6,1.1-1c2.7-3.1,4.1-6.8,4.6-10.8c0-0.3,0-0.6-0.2-0.8C168.2,46.8,165.5,45.1,162.1,45z
			 M93.4,144.4c0.4-0.8,0.7-1.5,1.1-2c0.7-0.9,1.4-1.9,2.3-2.6c2.8-1.9,4.1-5.1,3.2-8.6c-3.6,0-7.1,0-10.7,0c-0.3,0-0.7,0.4-0.7,0.7
			c-0.2,1-0.3,2.1-0.3,3.1C88.4,138.9,90.7,141.6,93.4,144.4z M93.8,96.5c-2.6,0.7-5.2,1.4-7.7,2.1c-2.2,0.6-3.7,2.4-4,4.9
			c4-0.2,8-0.4,12-0.6C94.8,100.6,94.4,98.5,93.8,96.5z"/>
		<path d="M53.9,338.9c0.7,0.8,1.6,1.7,2.5,2.7c-2.2,1.9-4.5,3.6-5.7,6.4c-1.1,2.8-0.9,5.6-0.7,8.7c0.5-0.3,0.9-0.6,1.3-0.8
			c1.2-0.5,2.5-1.3,3.7-1.2c3.9,0.4,6.4-1.5,8.6-4.3c0.3-0.4,0.6-1.3,1.3-0.7c0.6,0.5,0.5,1.3-0.1,1.8c-1.5,1.3-1.7,2.9-1.3,4.8
			c0.5,2.5,0.5,4.9-0.4,7.3c-0.6,1.8-0.4,3.3,1,4.7c2,2.1,2.6,4.8,2.8,7.5c0.1,0.9,0.3,1.5,1.2,1.9c2.9,1.3,5.2,3.4,6.6,6.4
			c0.6,1.4,1.5,2.1,3.2,2.1c2,0,3.9,0.7,5.7,1.7c0.8,0.5,1.7,1,2.6,1.3c0.5,0.2,1.1,0.2,1.6,0.1c3.3-1.3,6.7-2.3,10.4-1.3
			c0.6,0.2,1.4-0.1,2.1-0.4c0.5-0.2,1-0.6,1.4-0.9c3.1-2.4,6.6-3.4,10.5-3.1c0.8,0.1,1.2-0.2,1.5-0.9c0.6-1.1,1.5-2,2.9-2.3
			c0.5-0.1,1,0,1.5,0.2c-1,1-2.1,2-3.1,2.9c0.1,0.2,0.1,0.3,0.2,0.3c2,1,3.6,2.5,5,4.2c0.3,0.4,0.7,0.6,1,1c2,1.9,4.3,2.5,6.9,1.3
			c1.1-0.5,2.3-0.7,3.8,0.1c-0.9,0.5-1.6,1-2.3,1.2c-1,0.3-2,0.3-3,0.4c-1.5,0.1-2.9,0.7-3.9,1.9c-2.3,2.7-5.2,4-8.7,4.2
			c-2.5,0.1-4.7,0.8-6.6,2.4c-2.5,2-5.5,2.8-8.7,2.4c-2.8-0.3-5.4-0.1-8.1,0.9c-3.7,1.3-7.3,0.8-10.7-1.1c-2.5-1.4-5.1-2.3-7.9-2.9
			c-4.3-0.9-7.5-3.3-9.6-7.3c-0.7-1.3-1.9-2.5-3.2-3.3c-4.2-2.6-6.4-6.4-6.8-11.3c-0.1-1.4-0.7-2.6-1.5-3.6c-2.4-3.1-3.4-6.7-3-10.6
			c0.1-1.3,0.7-2.5,0.9-3.8c0.2-1.1,0.4-2.2,0.1-3.3c-1-4.5-0.3-8.6,2.5-12.3c0.4-0.5,0.9-1,1.2-1.6
			C52.9,341.5,53.3,340.2,53.9,338.9z M60.6,388.4c0.2-1,0.4-1.9,0.7-2.8c0.4-1.3,0.9-2.5,2-3.2c1.2-0.7,1.8-1.9,1.8-3.1
			c0-2.1-0.2-4.1-0.6-6.2c-0.3-1.5-0.8-2.9-1.5-4.2c-0.5-1.1-1.4-1.3-2.3-0.7c-1.7,1.2-3.3,2.3-5,3.4c-1.1,0.7-1.9,1.7-2.2,3
			C52.5,379.7,55.8,386.2,60.6,388.4z M52.4,373.9c0.6-2.2,2.1-3.2,3.6-4.1c0.8-0.5,1.6-1,2.4-1.5c1.4-0.9,2.4-2.2,2.9-3.8
			c1.2-3.2,0.9-6.5,0.3-9.8c-2.5,0.5-4.8,1.1-7.2,1.6c-1.9,0.4-3.3,1.4-4.1,3.1c-2.2,4.5-1.7,8.9,0.7,13.2
			C51.3,373,51.8,373.3,52.4,373.9z M66.7,378.8c-0.3,2.5-1.6,4.2-3,5.9c-1.1,1.3-1.6,2.8-1.2,4.5c1.1,5.1,6.7,9.6,12,9.7
			c0-0.1,0.1-0.1,0.1-0.2c0-0.2-0.1-0.4-0.1-0.6c-0.6-2-0.5-3.8,0.2-5.8c0.3-1,0.5-2.2,0.4-3.2C74,384.3,71.3,380.9,66.7,378.8z
			 M122.3,392.2c-0.6-0.4-1.1-0.8-1.6-1c-1.2-0.5-2.1-1.3-2.7-2.5c-2-3.5-5.2-4.2-8.9-3.8c-3,0.3-5.3,2.2-7.9,3.4
			c0.6,0.6,1.1,1,1.5,1.6c0.9,1.1,1.9,2.2,2.5,3.4c1.2,2.4,3,3.4,5.6,3.6c0.9,0,1.9,0.1,2.8,0C116.9,396.4,119.9,395,122.3,392.2z
			 M108.1,397.8c-2.3-0.8-3.7-2.1-4.4-4c-0.7-1.9-2.1-3.1-4-3.8c-3.6-1.3-7.1-1.1-10.6,0.3c-0.4,0.1-0.8,0.1-1,0.2
			c0.9,2.3,1.8,4.7,2.9,7.1c1,2.3,2.9,3.7,5.5,4c3.2,0.4,6.2-0.2,9-1.8C106.3,399.3,107,398.6,108.1,397.8z M76.3,387.5
			c-0.1,1.4-0.2,2.7-0.3,3.9c-0.1,1-0.2,1.9-0.3,2.9c-0.3,2.5,0.6,4.4,2.5,5.9c3.7,2.9,9.9,3.6,13.5,1.5c-0.2-0.2-0.3-0.5-0.5-0.7
			c-1.8-1.7-2.4-3.8-2.8-6.1c-0.2-0.9-0.6-1.8-1.2-2.5C84.4,389.2,80.6,387.8,76.3,387.5z"/>
		<path d="M115.9,291.9c0.5,0.5,0.9,0.9,1.3,1.2c1.2,0.9,2,2,2.3,3.5c0.6,2.4,2.1,3.8,4.5,4.4c1,0.2,2.1,0.3,2.6,1.7
			c-0.7,0.1-1.3,0.1-1.9,0.2c-0.6,0.1-1.4,0-1.9,0.3c-2.2,1.1-4.3,2.4-6.8,2.7c-1.4,0.2-2.8,0.2-4.2,0.1c-1.3-0.1-2.3,0.4-3.2,1.3
			c-2.2,2.4-5,3.9-8.3,4.3c-1.7,0.2-3.1,0.9-4.1,2.4c-1.8,2.6-4.1,4.6-7.3,5.3c-1.9,0.5-3.3,1.6-3.9,3.6c-0.4,1.2-0.9,1.3-2.3,0.8
			c0.5-1,1.1-2.1,1.6-3.2c-0.7-0.1-1.2-0.3-1.7-0.4c-1.5-0.3-2.8-0.9-3.8-2c-1.6-1.7-3.5-1.9-5.7-1.3c-1.1,0.3-2.2,0.7-3.7,0.2
			c0.4-0.4,0.7-0.7,1-0.9c1.3-0.9,2.3-1.8,3.1-3.3c1.9-3.4,4.8-5.9,8.6-7c1.6-0.4,2.8-1.2,3.8-2.6c2.1-3.2,5.2-5.1,8.9-6
			c0.6-0.1,1.3-0.3,1.9-0.4c1.2-0.3,2.2-0.8,3.2-1.7c3.4-3,7.4-4.8,12.1-4.2c1.2,0.1,2.3,0,3.3-0.6c2.4-1.3,4.8-2.6,7.6-2.8
			c1.2-0.1,2.4,0.1,3.5,0.2c0.3,0,0.5,0.5,0.8,0.8c-0.3,0.2-0.5,0.6-0.8,0.6c-1.5,0.1-3,0.1-4.5,0.2
			C119.8,289.7,117.9,290.7,115.9,291.9z M108.2,305.6c-0.3-0.3-0.6-0.5-0.8-0.6c-1.7-0.9-2.9-2.1-3.8-3.8c-1-1.7-2.7-2.6-4.7-2.6
			c-5-0.1-8.7,2.2-11.6,6.1c-0.1,0.2-0.2,0.4-0.3,0.7c2.5,0.1,4.1,1.5,5.6,3.2c1,1.2,2.4,1.8,4,1.9c3.9,0.3,7.4-0.8,10.3-3.4
			C107.3,306.7,107.7,306.2,108.2,305.6z M74.4,314.9c0.3,0.1,0.4,0.2,0.6,0.2c2.1,0.2,3.9,1,5.6,2.5c1.6,1.4,3.5,1.7,5.6,1.3
			c3.8-0.7,6.7-2.7,9.1-5.7c0.2-0.3,0.4-0.7,0.7-1.3c-2.6-0.3-4.1-1.8-5.7-3.5c-1.3-1.4-3-1.8-4.8-1.6
			C80.3,307.5,76.8,310.4,74.4,314.9z M100.5,297.4c2.6,0.8,4.2,2.2,5.3,4.5c0.3,0.7,1.1,1.3,1.8,1.6c1.1,0.5,2.4,0.9,3.6,1.1
			c3.7,0.7,7-1,10.5-2.2c-0.3-0.4-0.4-0.9-0.7-1.1c-1.5-1.4-2.4-3.2-3.2-5c-0.8-1.9-2.4-3-4.4-3.4c-4.2-0.8-7.9,0.3-11.2,2.9
			C101.5,296.1,101.1,296.7,100.5,297.4z"/>
		<path d="M137.3,99.7c0-0.4-0.1-0.7,0-1c0.3-7.9,0.5-15.7,0.8-23.6c0.2-3.5,0.5-7.1,1.1-10.6c0.6-4,4.4-6.9,8.6-6.9
			c4.2,0,8,2.8,8.6,6.9c0.6,4.2,1.1,8.5,1.3,12.7c0.3,7.1,0.5,14.3,0.7,21.4c0,0.2,0,0.5,0,0.9c-1.2,0-2.4,0-3.5,0
			c-0.2,0-0.5-0.6-0.5-0.9c-0.2-4.3-0.4-8.5-0.4-12.8c-0.1-5.3-0.1-10.6-0.2-15.8c-0.1-1.7-0.4-3.4-0.9-5c-0.8-2.5-2.6-3.6-5-3.6
			c-2.4,0-4.2,1.2-4.9,3.6c-0.5,1.8-0.8,3.7-0.9,5.5c-0.3,8.3-0.5,16.6-0.7,24.9c0,1.1-0.1,2.2-0.2,3.2c0,0.2-0.3,0.6-0.5,0.6
			C139.5,99.5,138.4,99.6,137.3,99.7z"/>
		<path d="M152.6,99.2c-2.5,0-4.8,0-7.1,0c-0.2,0-0.6-0.6-0.6-1c-0.1-4.3-0.2-8.6-0.1-12.9c0-5.5,0.1-11,0.2-16.5
			c0-1.1,0.1-2.2,0.3-3.3c0.4-1.6,1.3-2.2,3-2.1c1.5,0,2.5,0.7,2.8,2.2c0.3,1.4,0.3,2.9,0.4,4.4c0.4,8.7,0.8,17.5,1.1,26.2
			C152.7,97.2,152.6,98.3,152.6,99.2z"/>
	</g>
</g>
<g class="st2">
	<path d="M71.7,441.9c0.3,0.1,0.9,0.2,1.7,0.5c0.8,0.2,1.6,0.5,2.6,0.9c1,0.4,2,0.9,3,1.5c1.1,0.6,2,1.3,2.9,2
		c0.9,0.8,1.6,1.7,2.3,2.7c0.6,1,1,2.1,1.1,3.4c0.4-0.1,0.8-0.2,1.3-0.4c0.5-0.2,0.9-0.3,1.4-0.5c0.4-0.1,0.9-0.3,1.2-0.4
		c0.4-0.1,0.6-0.2,0.8-0.2c0.2,0,0.3,0.1,0.4,0.2c0.1,0.1,0.1,0.2,0.1,0.3c0,0.2-0.4,0.4-1.3,0.6c-0.8,0.3-2,0.6-3.7,1.2
		c0,0.5,0.1,1.1,0.1,1.9c0,0.8,0,1.6-0.2,2.4c-0.5,2-1.3,3.8-2.4,5.5c-1.1,1.6-2.7,3-4.7,4.3c-2,1.3-4.5,2.4-7.3,3.3
		c-1.5,0.5-2.9,0.9-4.4,1.1c-1.5,0.2-3,0.3-4.5,0.3c-2.2-0.2-3.8-0.6-4.7-1.3c-0.9-0.7-1.2-1.7-0.9-3c0.4-1.2,1.2-2.3,2.4-3.5
		c1.2-1.1,3-2.2,5.2-3.3c1.1-0.5,2.1-1.1,3.2-1.6c1.1-0.5,2.2-1.1,3.4-1.6c1.2-0.5,2.6-1.1,4.1-1.7c1.5-0.6,3.2-1.2,5.1-1.9
		c0-1-0.2-2.1-0.6-3.3c-0.4-1.1-1-2.2-1.7-3.3c-0.8-1-1.7-2-2.8-2.9c-1.1-0.9-2.3-1.6-3.7-2.2l-3.2-0.9c-0.7,1.5-1.5,3-2.3,4.5
		c-1.9,3.4-3.9,6.5-5.9,9.3c-2,2.8-4.1,5.2-6.2,7.3c-2.8,3-6.9,6.1-12.4,9.4c-5.4,3.3-11.8,5-19.2,5.3c-6.6-0.1-12-1.5-15.9-4.3
		c-3.9-2.8-6-6.5-6.1-11.1c0-4.9,2-9.1,6.1-12.6c4.1-3.6,10.1-5.4,18.2-5.6c5.8,0.1,10.4,1.2,13.8,3.3c3.4,2.1,5.1,4.4,5.2,7
		c0,0.9-0.2,1.7-0.6,2.4c-0.4,0.7-0.8,1.3-1.4,1.8h6.7c0.2,0,0.3,0,0.4,0.1c0.1,0,0.2,0.2,0.2,0.3c0,0.2-0.1,0.3-0.2,0.4
		c-0.2,0-0.3,0.1-0.5,0.1h-7.6c-0.8,0.7-2.3,1.3-4.3,2c-1,0.3-2.2,0.6-3.5,0.7c-1.3,0.2-2.8,0.3-4.6,0.3c-3.6-0.1-6.4-0.5-8.5-1.2
		c-2.1-0.7-3.2-1.5-3.2-2.2c0-0.4,0.4-0.5,1.2-0.5h22.5c0.8-0.6,1.4-1.3,1.9-2s0.7-1.4,0.7-2.3c-0.1-2-1.8-3.8-5.1-5.2
		c-3.2-1.5-7.5-2.3-12.7-2.3c-6.5,0-11.9,1-16.2,3.1c-4.2,2-6.5,5.2-6.6,9.5c0.3,5,3.1,8.4,8.3,10.3c5.2,1.9,11,2.8,17.4,2.7
		c4.9,0,9.2-0.7,13-2c3.8-1.3,6.9-3.2,9.4-5.7c4.5-4.7,9-11.2,13.5-19.3c0.4-0.7,0.8-1.4,1.2-2.1c0.4-0.7,0.7-1.4,1.1-2.1l-2.7-0.8
		c-0.2-0.1-0.4-0.1-0.4-0.2c-0.1,0,0-0.2,0.1-0.3c0.1-0.2,0.2-0.4,0.3-0.4c0.1,0,0.3,0,0.5,0l2.6,0.7c1.5-3,2.8-5.8,3.9-8.4
		c1.1-2.6,2-5.1,2.8-7.5c-1.3-0.5-2.6-0.8-4.1-1.1c-1.4-0.2-2.9-0.3-4.4-0.3c-1.5,0-2.9,0.1-4.3,0.4c-1.4,0.2-2.8,0.6-4,1
		c-1.3,0.4-2.4,0.9-3.4,1.5c-1,0.6-1.9,1.2-2.6,1.9c-2.8,2.9-4.2,6.1-4.1,9.6c0.2,3.6,1,6.7,2.3,9.1c1.4,2.4,2.1,3.8,2.3,4.3
		c0,0.3-0.1,0.4-0.3,0.4c-0.1,0.1-0.5-0.3-1-1.2c-0.6-0.9-1.6-2.8-3.2-5.8c-0.7-1.8-1.4-3.4-1.9-5c-0.5-1.6-0.8-3.2-0.8-4.9
		c-0.1-3.7,1.4-6.6,4.4-8.7c2.2-1.6,4.4-2.6,6.7-3.2c2.3-0.6,4.6-0.8,6.9-0.8c2.3,0.1,4.6,0.3,7,0.8c2.3,0.5,4.7,1,7,1.5
		c2.3,0.5,4.7,1,7,1.3c2.3,0.4,4.6,0.5,6.9,0.3c2.3-0.2,4.5-0.7,6.8-1.7c2.2-0.9,4.4-2.4,6.6-4.5c0.2-0.2,0.3-0.1,0.4,0
		c-0.4,1.4-1.2,2.7-2.2,4c-1,1.3-2.3,2.5-3.7,3.6c-0.7,0.4-1.4,0.8-2.3,1.2c-0.8,0.3-1.7,0.6-2.7,0.8c-1,0.2-2.1,0.3-3.3,0.2
		c-1.2,0-2.6-0.2-4.1-0.5c-1.5-0.3-3.2-0.8-5-1.5c-1.8-0.7-3.9-1.5-6.2-2.6c-0.6,3-1.4,5.8-2.2,8.4c-0.8,2.7-1.8,5.3-2.9,7.8
		L71.7,441.9z M79.7,460.3c0.1-0.4,0.2-0.8,0.2-1.3c0.1-0.4,0.1-0.9,0.1-1.3c0-0.4,0-0.8-0.1-1.1c-0.1-0.3-0.2-0.6-0.3-0.8
		c-2.8,1-5.3,2-7.5,2.9c-2.2,0.9-4.2,1.8-6,2.7c-3.4,1.7-5.4,3.6-6,5.5c-0.1,0.6-0.1,1.2,0.1,1.7c0.2,0.5,0.5,0.9,1,1.3
		c0.5,0.4,1.1,0.6,1.8,0.9c0.7,0.2,1.5,0.4,2.3,0.4c1.7,0,3.3-0.2,4.8-0.7c1.5-0.5,2.9-1.3,4.3-2.4c1.4-1.1,2.5-2.3,3.4-3.6
		C78.6,463.4,79.3,461.9,79.7,460.3z"/>
	<path d="M120.4,446.6c-0.7,1.6-1.6,3.5-2.7,5.9c-1.1,2.4-2.3,4.9-3.4,7.5c-1.1,2.6-2.1,4.8-2.9,6.8c-0.8,1.9-1.2,3.2-1.2,3.9
		c0,0.2,0,0.3,0.1,0.4c0.1,0.1,0.2,0.2,0.4,0.2c0.3,0,0.8-0.4,1.6-1c0.8-0.6,1.5-1.3,2.2-1.9c2-2.1,3.3-3.6,3.8-4.6
		c0.5-0.9,0.8-1.4,1.1-1.4c0.1,0,0.2,0,0.3,0.1c0.1,0,0.1,0.1,0.1,0.2c-0.1,0.4-0.6,1.3-1.7,2.7c-1,1.4-2.1,2.6-3.3,3.8
		c-0.7,0.7-1.5,1.3-2.4,2c-0.9,0.6-1.7,1-2.4,1c-0.7,0-1.4-0.3-1.9-0.9c-0.6-0.6-0.9-1.6-0.9-2.9c0-0.9,0.2-2,0.6-3.2
		c0.4-1.2,1-2.5,1.7-3.9c0.7-1.4,1.4-2.9,2.2-4.4c0.7-1.6,1.5-3.2,2.2-4.8c-0.8,1.1-1.7,2.2-2.5,3.4c-0.8,1.2-1.7,2.4-2.7,3.7
		c-0.9,1.2-1.9,2.5-3,3.8c-1,1.3-2.2,2.6-3.3,3.8c-1.4,1.4-2.7,2.6-4,3.7c-1.3,1-2.6,1.6-3.8,1.6c-1.1-0.1-1.8-0.5-2.3-1.4
		c-0.4-0.9-0.6-1.9-0.6-3.2c0.2-4.4,2.3-8.9,6.3-13.6c4-4.7,9.1-7.2,15.3-7.6c0.5,0,1.1,0,1.6,0.1c0.5,0.1,1,0.2,1.4,0.3H120.4z
		 M115.4,447.3c-0.2,0-0.3,0-0.6-0.1c-0.2-0.1-0.5-0.1-0.9-0.1c-5.3,0.6-9.8,3.8-13.5,9.5c-3.7,5.7-5.6,10.2-5.7,13.6
		c0,0.3,0,0.5,0.1,0.7c0.1,0.2,0.2,0.3,0.4,0.3c0.8-0.1,1.7-0.6,2.8-1.6c1.1-1,2.1-1.8,2.8-2.6c2.3-2.3,4.8-5.3,7.7-9
		C111.4,454.3,113.7,450.7,115.4,447.3z"/>
	<path d="M124.7,468.4c-0.2,0.4-0.3,0.8-0.2,1.1c0,0.3,0.1,0.6,0.3,0.8c0,0.2,0.1,0.3,0.3,0.4c0.2,0.1,0.5,0.2,0.8,0.2
		c0.6,0,1.3-0.4,2-1.1c0.8-0.7,1.5-1.5,2.4-2.6s1.6-2.1,2.5-3.4c0.8-1.2,1.6-2.4,2.4-3.5c0.4-0.6,0.9-1.3,1.6-2.3
		c0.7-1,1.4-2,2.3-3.1c0.8-1.1,1.7-2.2,2.6-3.3c0.9-1.1,1.8-2.1,2.7-3c0.9-0.9,1.8-1.6,2.6-2.1c0.8-0.5,1.5-0.7,2.1-0.6
		c0.8,0,1.5,0.4,2,1.1c0.5,0.7,0.7,1.6,0.7,2.7c0,1-0.2,1.9-0.6,2.7c-0.2,0.4-0.4,0.9-0.8,1.5c-0.3,0.6-0.7,1.3-1.2,2.1
		c-1.2,2.6-2.2,4.7-3.1,6.4c-0.9,1.7-1.6,3.1-2.1,4.2c-0.6,1.1-1,1.9-1.2,2.4c-0.3,0.5-0.4,0.9-0.4,1.2c0,0.2,0.1,0.4,0.2,0.6
		c0.2,0.2,0.4,0.3,0.7,0.3c0.5,0,1.1-0.3,1.7-0.7c0.3-0.2,0.6-0.4,0.8-0.6s0.4-0.4,0.6-0.6c0.6-0.6,1.1-1.2,1.7-1.9
		c0.5-0.6,1-1.2,1.5-1.9c1-1.3,1.6-1.9,1.8-2c0.1,0,0.2,0,0.2,0.1c0,0,0,0.1,0,0.2c-0.1,0.4-0.7,1.3-1.8,2.7
		c-0.6,0.7-1.1,1.3-1.6,1.8c-0.5,0.5-1,1-1.4,1.5c-0.8,0.8-1.4,1.4-2,1.7c-0.6,0.3-1.2,0.5-1.9,0.5c-1.1,0-1.9-0.5-2.5-1.3
		c-0.6-0.9-0.9-1.9-0.9-2.9c-0.1-0.8,0.3-2,1-3.5c0.4-0.8,0.9-1.9,1.7-3.4c0.7-1.5,1.7-3.3,2.9-5.5c0.5-1,1-1.9,1.4-2.7
		c0.4-0.9,0.9-1.7,1.3-2.5c0.8-1.5,1.3-2.5,1.3-2.9c0-0.2-0.2-0.4-0.5-0.4c-0.6,0-1.3,0.4-2.2,1.2c-0.9,0.8-1.8,1.8-2.9,3
		c-1.1,1.3-2.2,2.7-3.5,4.4c-1.3,1.7-2.6,3.5-3.9,5.4c-0.6,0.9-1.3,1.9-2,2.9c-0.7,1.1-1.4,2.1-2.2,3.1c-0.8,1-1.7,2-2.6,2.8
		c-0.9,0.8-1.9,1.5-3,2c-1.5,0-2.7-0.4-3.6-1.2c-0.9-0.8-1.4-1.8-1.5-3c-0.2-1.2-0.1-2.3,0.3-3.1c0.4-0.8,1-1.3,1.7-1.6
		c0.5-0.1,1.1,0,1.6,0.3c0.5,0.3,0.9,0.8,1.1,1.4c0.1,0.8,0.1,1.4-0.1,1.9C125.5,467.2,125.2,467.8,124.7,468.4z"/>
	<path d="M166.1,446.2c0.9,0,1.7,0.4,2.3,1.2c0.7,0.8,1,1.8,1.1,3.2c0,0.6-0.1,1.3-0.4,2.1c-0.3,0.7-0.7,1.6-1.2,2.7
		c-0.6,1-1.2,2.3-2.1,3.9c-0.8,1.6-1.8,3.5-2.9,5.8c1.1-1.6,2.1-2.9,2.9-4.1c0.8-1.1,1.6-2.2,2.4-3.2c0.8-1,1.7-2,2.7-3.1
		c1-1.1,2.2-2.3,3.7-3.7c1-1.1,2.2-2.2,3.5-3.2c1.3-1,2.5-1.6,3.6-1.7c1,0,1.8,0.5,2.2,1.2c0.4,0.8,0.7,1.6,0.6,2.6
		c0,0.7-0.1,1.4-0.4,2.2c-0.3,0.7-0.7,1.6-1.2,2.6c-0.5,1-1.2,2.3-2.1,4c-0.8,1.6-1.8,3.7-2.9,6.2c1.9-2.7,3.7-5.1,5.4-7.2
		c1.7-2.1,3.6-4.2,5.6-6.2c1-1.1,2.3-2.2,3.8-3.4c1.5-1.2,2.8-1.8,4-1.9c1,0,1.7,0.5,2.1,1.2c0.5,0.8,0.7,1.7,0.7,2.7
		c0.1,0.6-0.1,1.5-0.5,2.5c-0.5,1.1-1.8,3.6-3.9,7.7c-1.1,2.2-2.2,4.3-3.2,6.4c-1,2.1-1.5,3.3-1.6,3.9c0,0.3,0.1,0.6,0.3,0.7
		c0.2,0.1,0.4,0.2,0.7,0.2c0.4,0,1-0.2,1.5-0.7c0.6-0.4,1.1-0.9,1.7-1.5c1.6-1.7,2.8-3,3.4-4c0.6-1,1.1-1.4,1.4-1.5
		c0.1,0,0.2,0,0.3,0.1c0,0.1,0.1,0.1,0.1,0.2c-0.1,0.4-0.7,1.3-1.9,2.7c-1.1,1.4-2.2,2.5-3,3.4c-0.8,0.8-1.5,1.3-2.1,1.6
		c-0.6,0.3-1.2,0.5-1.7,0.5c-1,0-1.8-0.5-2.5-1.2c-0.6-0.8-1-1.7-1-2.9c-0.1-0.7,0.2-1.7,0.7-3.1c0.6-1.3,1.8-3.8,3.6-7.3
		c1.6-3.2,2.8-5.7,3.7-7.4c0.9-1.7,1.3-2.7,1.3-2.9c0-0.1,0-0.2-0.1-0.3c-0.1-0.1-0.2-0.1-0.4-0.1c-0.5,0-1.4,0.5-2.7,1.5
		c-1.3,1-2.8,2.3-4.4,3.9c-2.2,2.1-4.5,4.8-7.1,8.1c-2.6,3.3-4.9,6.9-7.1,11.1h-4.8c0.7-1.6,1.7-3.7,3-6.3c1.3-2.6,2.5-5.2,3.9-7.9
		c1.3-2.7,2.5-4.9,3.4-6.8c0.9-1.9,1.4-2.9,1.5-3.1c0-0.2,0-0.3-0.1-0.4c-0.1-0.1-0.3-0.1-0.5-0.1c-0.4,0-1.2,0.5-2.4,1.4
		c-1.2,0.9-2.5,2-3.9,3.4c-2.2,2.2-4.6,4.9-7.2,8.2c-2.6,3.3-5.1,7.2-7.6,11.7h-4.5c2-4.4,3.7-8.1,5.1-11c1.4-3,2.5-5.3,3.4-7.1
		c0.9-1.8,1.5-3.1,2-4c0.4-0.9,0.6-1.4,0.6-1.6c0-0.2-0.1-0.4-0.2-0.6c-0.1-0.1-0.3-0.2-0.5-0.2c-0.5,0-1.3,0.2-2.3,0.8
		c-1,0.6-2.4,1.8-4.1,3.5c-1.2,1.2-1.9,2-2.3,2.5c-0.4,0.5-0.7,0.8-0.9,0.7c-0.1,0-0.1,0-0.2-0.1c-0.1-0.1-0.1-0.1-0.1-0.3
		c0.2-0.7,1.4-2.2,3.7-4.4C162,447.8,164.1,446.5,166.1,446.2z"/>
	<path d="M212.7,446.1c1.1,0,1.9,0.5,2.5,1.4c0.6,0.9,0.9,1.8,0.9,2.9c0.1,0.8-0.3,2-1,3.5c-0.7,1.6-2.2,4.5-4.5,8.9
		c-1,1.9-1.9,3.6-2.7,5.2c-0.8,1.5-1.2,2.5-1.3,2.9c0,0.2,0,0.3,0.1,0.3c0.1,0,0.2,0.1,0.4,0.1c0.8-0.1,1.9-0.8,3.4-2
		c1.5-1.2,2.7-2.3,3.7-3.3c2.2-2.2,4.6-4.9,7.3-8.3c2.6-3.3,5-7,7.2-11.1h4.4c-2.2,4.6-4,8.5-5.5,11.5c-1.5,3-2.6,5.4-3.5,7.1
		c-0.8,1.7-1.4,3-1.8,3.8c-0.4,0.8-0.5,1.4-0.5,1.7c0,0.2,0.1,0.4,0.2,0.5c0.1,0.1,0.3,0.2,0.5,0.2c0.8,0,1.6-0.4,2.5-1.1
		c0.8-0.7,1.6-1.3,2.2-2c1.5-1.6,2.5-2.8,3.1-3.7c0.6-0.9,1-1.4,1.3-1.4c0.1,0,0.2,0,0.3,0.1c0,0,0.1,0.1,0.1,0.2
		c0,0.3-0.5,1-1.4,2.2c-0.9,1.1-1.8,2.3-2.9,3.3c-0.6,0.6-1.4,1.3-2.4,2.1c-1,0.7-2.1,1.2-3.3,1.3c-1.1,0-1.9-0.3-2.5-0.8
		c-0.6-0.5-0.8-1.4-0.8-2.5c0-0.8,0.1-1.6,0.3-2.4c0.2-0.8,0.7-1.9,1.3-3.1c0.6-1.2,1.5-2.9,2.6-4.9c1.1-2,2.4-4.6,4.1-7.7
		c-2.2,3.5-4.3,6.6-6.4,9.2c-2.1,2.6-4.1,4.7-5.8,6.4c-1.5,1.5-2.9,2.8-4.4,3.9c-1.5,1.1-2.7,1.7-3.7,1.8c-0.8,0-1.5-0.4-2-1.1
		c-0.5-0.7-0.7-1.6-0.7-2.7c0-1,0.2-1.9,0.6-2.7c0.4-0.8,1-2,2-3.6c1.2-2.6,2.2-4.7,3.1-6.4c0.9-1.7,1.6-3.1,2.1-4.2
		c0.5-1,0.9-1.9,1.2-2.4c0.3-0.6,0.4-1,0.4-1.1c0-0.2-0.1-0.4-0.2-0.6c-0.2-0.2-0.4-0.3-0.7-0.3c-0.5,0-1.1,0.3-1.7,0.7
		c-0.6,0.4-1.1,0.8-1.4,1.2c-1.2,1.2-2.2,2.5-3.2,3.7c-0.9,1.3-1.6,1.9-1.8,2c-0.1,0-0.2,0-0.2-0.1c0,0,0-0.1,0-0.2
		c0.1-0.4,0.7-1.3,1.8-2.7c1.1-1.3,2.1-2.5,3-3.3c0.8-0.8,1.4-1.4,2-1.7C211.4,446.3,212,446.1,212.7,446.1z"/>
	<path d="M248.9,445.5l-4.2,9.7c1.7,0,3.1-0.1,4.2-0.4c1.1-0.3,2.2-1,3.2-2c2-2.2,3.7-4.3,5-6.2c1.3-1.9,2.9-2.9,4.6-3.1
		c0.7,0,1.2,0.1,1.5,0.4c0.3,0.3,0.5,0.6,0.5,1.1c0,0.4-0.1,1.1-0.2,2.2c-0.2,1.1-0.4,1.8-0.6,1.9c-0.3-0.1-0.6-0.4-0.7-1
		c-0.1-0.6-0.6-0.9-1.4-1c-1.2,0.2-2.7,1.4-4.4,3.6c-1.7,2.1-3.9,3.7-6.8,4.9v0.2c0.5,0.1,1,0.3,1.7,0.6c0.6,0.3,1.3,0.8,1.8,1.4
		c1.2,1.6,2.3,3.8,3.2,6.6s1.6,4.4,2.3,4.7c0.6-0.2,1.5-1.2,2.7-2.8c1.2-1.6,2-2.6,2.4-2.8c0.2,0,0.3,0,0.3,0.1
		c0.1,0.1,0.1,0.2,0.1,0.3c-0.2,0.4-1,1.4-2.4,3.2s-2.5,3-3.3,3.8c-0.3,0.3-0.6,0.6-1,0.8c-0.3,0.2-0.7,0.3-1.2,0.3
		c-1.1,0-2-0.7-2.6-2.1c-0.6-1.4-1.4-3.5-2.3-6.4c-1.1-3.3-2-5.4-2.8-6.1c-0.8-0.8-2.2-1.1-4.3-1l-6,15.5H234l10.3-26L248.9,445.5z"
		/>
	<path d="M293.8,446.6c-0.7,1.6-1.6,3.5-2.7,5.9c-1.1,2.4-2.3,4.9-3.4,7.5c-1.1,2.6-2.1,4.8-2.9,6.8c-0.8,1.9-1.2,3.2-1.2,3.9
		c0,0.2,0,0.3,0.1,0.4c0.1,0.1,0.2,0.2,0.4,0.2c0.3,0,0.8-0.4,1.6-1c0.8-0.6,1.5-1.3,2.2-1.9c2-2.1,3.3-3.6,3.8-4.6
		c0.5-0.9,0.8-1.4,1.1-1.4c0.1,0,0.2,0,0.3,0.1c0.1,0,0.1,0.1,0.1,0.2c-0.1,0.4-0.6,1.3-1.6,2.7c-1,1.4-2.1,2.6-3.3,3.8
		c-0.7,0.7-1.5,1.3-2.4,2c-0.9,0.6-1.7,1-2.4,1c-0.7,0-1.4-0.3-1.9-0.9s-0.9-1.6-0.9-2.9c0-0.9,0.2-2,0.6-3.2c0.4-1.2,1-2.5,1.7-3.9
		c0.7-1.4,1.4-2.9,2.2-4.4c0.7-1.6,1.5-3.2,2.2-4.8c-0.8,1.1-1.7,2.2-2.5,3.4c-0.8,1.2-1.7,2.4-2.7,3.7c-0.9,1.2-1.9,2.5-3,3.8
		c-1,1.3-2.2,2.6-3.3,3.8c-1.4,1.4-2.7,2.6-4,3.7c-1.3,1-2.6,1.6-3.8,1.6c-1.1-0.1-1.8-0.5-2.3-1.4c-0.4-0.9-0.6-1.9-0.6-3.2
		c0.2-4.4,2.3-8.9,6.3-13.6c4-4.7,9.1-7.2,15.3-7.6c0.5,0,1.1,0,1.6,0.1s1,0.2,1.4,0.3H293.8z M288.8,447.3c-0.2,0-0.3,0-0.6-0.1
		c-0.2-0.1-0.5-0.1-0.9-0.1c-5.3,0.6-9.8,3.8-13.5,9.5c-3.7,5.7-5.6,10.2-5.7,13.6c0,0.3,0,0.5,0.1,0.7c0.1,0.2,0.2,0.3,0.4,0.3
		c0.8-0.1,1.7-0.6,2.8-1.6c1.1-1,2.1-1.8,2.8-2.6c2.3-2.3,4.8-5.3,7.7-9C284.7,454.3,287,450.7,288.8,447.3z"/>
</g>
</svg>
